<svg xmlns="http://www.w3.org/2000/svg" width="44" height="38" viewBox="0 0 44 38">
  <metadata><?xpacket begin="﻿" id="W5M0MpCehiHzreSzNTczkc9d"?>
<x:xmpmeta xmlns:x="adobe:ns:meta/" x:xmptk="Adobe XMP Core 5.6-c138 79.159824, 2016/09/14-01:09:01        ">
   <rdf:RDF xmlns:rdf="http://www.w3.org/1999/02/22-rdf-syntax-ns#">
      <rdf:Description rdf:about=""/>
   </rdf:RDF>
</x:xmpmeta>
                                                                                                    
                                                                                                    
                                                                                                    
                                                                                                    
                                                                                                    
                                                                                                    
                                                                                                    
                                                                                                    
                                                                                                    
                                                                                                    
                                                                                                    
                                                                                                    
                                                                                                    
                                                                                                    
                                                                                                    
                                                                                                    
                                                                                                    
                                                                                                    
                                                                                                    
                                                                                                    
                           
<?xpacket end="w"?></metadata>
<defs>
    <style>
      .cls-1 {
        fill-rule: evenodd;
      }
    </style>
  </defs>
  <path class="cls-1" d="M20.843,26.716a0.51,0.51,0,0,1-.358-0.145L6.985,13.362l13.5-13.209a0.513,0.513,0,0,1,.715,0,0.487,0.487,0,0,1,0,.7L8.414,13.362,21.2,25.872a0.487,0.487,0,0,1,0,.7A0.509,0.509,0,0,1,20.843,26.716ZM36.457,13.857H8.149a0.495,0.495,0,1,1,0-.989H36.457A0.495,0.495,0,1,1,36.457,13.857Zm0,24.125H8.149a0.495,0.495,0,1,1,0-.989H36.457A0.495,0.495,0,1,1,36.457,37.982Z"/>
</svg>
