<?xml version="1.0" encoding="utf-8"?>
<!-- Generator: Adobe Illustrator 16.0.0, SVG Export Plug-In . SVG Version: 6.00 Build 0)  -->
<!DOCTYPE svg PUBLIC "-//W3C//DTD SVG 1.1//EN" "http://www.w3.org/Graphics/SVG/1.1/DTD/svg11.dtd">
<svg version="1.1" id="Layer_1" xmlns="http://www.w3.org/2000/svg" xmlns:xlink="http://www.w3.org/1999/xlink" x="0px" y="0px"
	 width="44px" height="44px" viewBox="0 0 44 44" enable-background="new 0 0 44 44" xml:space="preserve">
<title>page_icon</title>
<path fill="#FFFFFF" d="M36.5,43h-28C8.224,43,8,42.775,8,42.5S8.224,42,8.5,42h28c0.275,0,0.5,0.225,0.5,0.5S36.775,43,36.5,43z"/>
<path fill="#FFFFFF" d="M34.5,32c-0.132-0.002-0.258-0.057-0.35-0.15l-24-24c-0.196-0.196-0.196-0.514,0-0.71
	c0.196-0.196,0.514-0.196,0.71,0l24,24c0.199,0.19,0.205,0.508,0.015,0.707C34.775,31.947,34.641,32.004,34.5,32z"/>
<path fill="#FFFFFF" d="M10.5,32c-0.276-0.004-0.497-0.23-0.493-0.507c0.002-0.128,0.053-0.251,0.143-0.343l24-24
	c0.195-0.196,0.514-0.196,0.709,0c0.197,0.196,0.197,0.514,0,0.71l-24,24C10.764,31.953,10.634,32.004,10.5,32z"/>
</svg>
