<svg id="9dc238fe-0d3d-4d8f-8423-c9c98da88f40" data-name="icon_contact_share" xmlns="http://www.w3.org/2000/svg" width="50" height="49" viewBox="0 0 50 49"><defs><style>.icon-contact-share{fill:#afafaf;}</style></defs><title>icon_contact_</title><path class="icon-contact-share" d="M30.3,28.81a2.92,2.92,0,0,0-3.57.13L22.09,25.6a2.85,2.85,0,0,0,0-2.16l4.64-3.34a2.92,2.92,0,0,0,3.57.13,2.86,2.86,0,0,0,.64-4,2.91,2.91,0,0,0-4-.64,2.86,2.86,0,0,0-1,3.41l-4.64,3.34-0.16-.13a2.91,2.91,0,0,0-4,.64,2.86,2.86,0,0,0,.64,4,2.92,2.92,0,0,0,3.57-.13l4.64,3.34a2.86,2.86,0,0,0,1,3.41,2.91,2.91,0,0,0,4-.64A2.86,2.86,0,0,0,30.3,28.81Z"/></svg>