<svg id="e99541de-e8e7-49a4-8a71-67fb9c33e8cf" data-name="Layer 1" xmlns="http://www.w3.org/2000/svg" width="52" height="52" viewBox="0 0 52 52"><defs>
	<style>.icon-blog{fill:#ffffff;}</style></defs>
	<title>Twitter Icon</title><path class="icon-blog" d="M40.5,16.54H39V35a0.5,0.5,0,0,1-.5.5h-8a2.93,2.93,0,0,0-2.5,3,0.5,0.5,0,0,1-.5.5h-2a0.5,0.5,0,0,1-.5-0.5,3,3,0,0,0-3-3H14.5A0.5,0.5,0,0,1,14,35V16.59H12.5a0.5,0.5,0,0,0-.5.5V37a0.5,0.5,0,0,0,.5.5H20c2,0,4,1.08,4,3.5a0.5,0.5,0,0,0,.5.5h4A0.5,0.5,0,0,0,29,41c0-2.42,2-3.5,4-3.5h7.5A0.5,0.5,0,0,0,41,37V17A0.5,0.5,0,0,0,40.5,16.54Zm-10,18H38V14a0.5,0.5,0,0,0-.5-0.5h-7a4.46,4.46,0,0,0-.55,0l-0.22,0-0.32.06-0.27.08-0.25.09L28.6,14l-0.23.11-0.26.15-0.25.17-0.2.14a4.39,4.39,0,0,0-.66.65V38h0A3.87,3.87,0,0,1,30.5,34.54ZM26,38h0V15.19a4.39,4.39,0,0,0-.66-0.65l-0.2-.14-0.25-.17-0.26-.15L24.4,14l-0.28-.12-0.25-.09-0.27-.08-0.32-.06-0.22,0a4.45,4.45,0,0,0-.55,0h-7a0.5,0.5,0,0,0-.5.5v20.5h7A4,4,0,0,1,26,38Z"/>
</svg>